<svg width="44" height="44" viewBox="0 0 44 44" fill="none" xmlns="http://www.w3.org/2000/svg">
<path d="M15.5833 30.2498C16.8641 28.0357 19.2581 26.546 21.9998 26.546C24.7418 26.546 27.1357 28.0357 28.4165 30.2498M25.6667 18.3332C25.6667 20.3583 24.0249 21.9998 22 21.9998C19.9749 21.9998 18.3333 20.3583 18.3333 18.3332C18.3333 16.3081 19.9749 14.6665 22 14.6665C24.0249 14.6665 25.6667 16.3081 25.6667 18.3332Z" stroke="#141B34" stroke-width="2.75" stroke-linecap="round"/>
<path d="M40.3334 25.6061V18.3944C35.0961 18.3944 31.6905 12.7059 34.342 8.1895L27.9912 4.58368C25.307 9.15592 18.696 9.15574 16.0117 4.5835L9.66083 8.18931C12.3124 12.7058 8.90403 18.3944 3.66669 18.3944V25.6061C8.90393 25.6061 12.3095 31.2946 9.65793 35.811L16.0088 39.4168C18.6943 34.8423 25.3085 34.8421 27.9941 39.4166L34.345 35.8108C31.6936 31.2944 35.0963 25.6061 40.3334 25.6061Z" stroke="#141B34" stroke-width="2.75" stroke-linecap="round" stroke-linejoin="round"/>
</svg>
