<svg width="60" height="60" viewBox="0 0 60 60" fill="none" xmlns="http://www.w3.org/2000/svg">
<g filter="url(#filter0_d_2_68698)">
<path d="M6.78619 19.2122C8.23555 13.0427 13.0547 8.22671 19.2252 6.7815C23.6814 5.73778 28.3188 5.73934 32.7743 6.78604C38.9438 8.23539 43.7598 13.0546 45.205 19.2251C46.2487 23.6813 46.2471 28.3186 45.2004 32.7741C43.7511 38.9437 38.9319 43.7596 32.7614 45.2048C28.3052 46.2485 23.6679 46.247 19.2123 45.2003C13.0428 43.7509 8.22687 38.9318 6.78165 32.7613C5.73793 28.305 5.73949 23.6677 6.78619 19.2122Z" fill="#1F2D3D"/>
</g>
<path d="M18.2185 25.9897L33.7688 25.9949M33.7688 25.9949L28.217 20.4394M33.7688 25.9949L28.2133 31.5468" stroke="white" stroke-width="1.57242" stroke-linecap="round" stroke-linejoin="round"/>
<defs>
<filter id="filter0_d_2_68698" x="0" y="0" width="59.9866" height="59.9863" filterUnits="userSpaceOnUse" color-interpolation-filters="sRGB">
<feFlood flood-opacity="0" result="BackgroundImageFix"/>
<feColorMatrix in="SourceAlpha" type="matrix" values="0 0 0 0 0 0 0 0 0 0 0 0 0 0 0 0 0 0 127 0" result="hardAlpha"/>
<feOffset dx="4" dy="4"/>
<feGaussianBlur stdDeviation="5"/>
<feComposite in2="hardAlpha" operator="out"/>
<feColorMatrix type="matrix" values="0 0 0 0 0 0 0 0 0 0 0 0 0 0 0 0 0 0 0.08 0"/>
<feBlend mode="normal" in2="BackgroundImageFix" result="effect1_dropShadow_2_68698"/>
<feBlend mode="normal" in="SourceGraphic" in2="effect1_dropShadow_2_68698" result="shape"/>
</filter>
</defs>
</svg>
