<svg width="44" height="44" viewBox="0 0 44 44" fill="none" xmlns="http://www.w3.org/2000/svg">
<path fill-rule="evenodd" clip-rule="evenodd" d="M12.5609 27.6172C13.5089 27.9727 13.9893 29.0295 13.6337 29.9776L10.8837 37.3109C10.5282 38.2589 9.47147 38.7393 8.52342 38.3838C7.57536 38.0282 7.09502 36.9715 7.45054 36.0234L10.2005 28.6901C10.5561 27.742 11.6128 27.2617 12.5609 27.6172ZM31.4401 27.6172C32.3881 27.2617 33.4449 27.742 33.8004 28.6901L36.5504 36.0234C36.9059 36.9715 36.4256 38.0282 35.4775 38.3838C34.5295 38.7393 33.4727 38.2589 33.1172 37.3109L30.3672 29.9776C30.0117 29.0295 30.492 27.9727 31.4401 27.6172Z" fill="#141B34"/>
<path fill-rule="evenodd" clip-rule="evenodd" d="M1.83331 7.33333C1.83331 6.32081 2.65412 5.5 3.66665 5.5H40.3333C41.3458 5.5 42.1666 6.32081 42.1666 7.33333C42.1666 8.34586 41.3458 9.16667 40.3333 9.16667H3.66665C2.65412 9.16667 1.83331 8.34586 1.83331 7.33333Z" fill="#141B34"/>
<path fill-rule="evenodd" clip-rule="evenodd" d="M19.5254 30.708C20.0436 30.708 20.3028 30.7079 20.4638 30.5469C20.6248 30.3858 20.625 30.1267 20.625 29.6084L20.625 7.05859C20.625 6.54005 20.6249 6.28023 20.4638 6.11914C20.3028 5.95825 20.0435 5.95801 19.5254 5.95801L5.49997 5.95801C5.12537 5.95801 4.76709 6.11149 4.50778 6.38183C4.24854 6.65216 4.11035 7.0164 4.12595 7.39062L4.52341 16.9346C4.64405 19.8305 4.7394 22.119 5.01169 23.9053C5.28942 25.7269 5.77628 27.2268 6.82321 28.4219C7.89912 29.65 9.25841 30.2052 10.8945 30.4639C12.4392 30.708 14.3871 30.7081 16.7666 30.708L19.5254 30.708ZM27.2334 30.708C29.6128 30.7081 31.5607 30.708 33.1054 30.4639C34.7415 30.2052 36.1008 29.6499 37.1767 28.4219C38.2237 27.2268 38.7105 25.7269 38.9883 23.9053C39.2605 22.1191 39.3559 19.8304 39.4765 16.9346L39.874 7.39062C39.8896 7.0164 39.7514 6.65216 39.4922 6.38183C39.2328 6.11149 38.8746 5.95801 38.5 5.95801H24.4746C23.9565 5.95801 23.6972 5.95824 23.5361 6.11914C23.375 6.28023 23.375 6.54005 23.375 7.05859L23.375 29.6084C23.375 30.1267 23.3752 30.3858 23.5361 30.5469C23.6972 30.7079 23.9563 30.708 24.4746 30.708H27.2334ZM16.5 20.167C15.4874 20.167 14.667 19.3455 14.667 18.333C14.6671 17.3206 15.4876 16.5 16.5 16.5H16.5166C17.5289 16.5001 18.3494 17.3207 18.3496 18.333C18.3496 19.3455 17.529 20.1669 16.5166 20.167H16.5ZM27.5 20.167C26.4874 20.167 25.667 19.3455 25.667 18.333C25.6671 17.3206 26.4876 16.5 27.5 16.5H27.5166C28.5289 16.5001 29.3494 17.3207 29.3496 18.333C29.3496 19.3455 28.529 20.1669 27.5166 20.167H27.5Z" fill="#141B34"/>
</svg>
