<svg width="32" height="32" viewBox="0 0 32 32" fill="none" xmlns="http://www.w3.org/2000/svg">
<path d="M1.66663 15.9998C1.66663 23.9159 8.08388 30.3332 16 30.3332C23.916 30.3332 30.3333 23.9159 30.3333 15.9998C30.3333 13.1682 29.5122 10.5283 28.0951 8.30538C27.9133 8.02033 27.8225 7.87781 27.6742 7.86553C27.526 7.85325 27.4096 7.98263 27.1767 8.2414L16.991 19.5585C16.7463 19.8304 16.4007 19.9898 16.035 19.9994C15.6693 20.009 15.3158 19.868 15.0571 19.6093L10.3905 14.9427C9.86978 14.422 9.86978 13.5777 10.3905 13.057C10.9112 12.5363 11.7554 12.5363 12.2761 13.057L15.5019 16.2828C15.7117 16.4926 15.8166 16.5975 15.9455 16.5942C16.0743 16.5908 16.1736 16.4805 16.3721 16.2599L25.5299 6.08489C25.7152 5.87902 25.8078 5.77608 25.8007 5.65125C25.7936 5.52642 25.6928 5.43728 25.4912 5.25899C22.9632 3.0234 19.64 1.6665 16 1.6665C8.08388 1.6665 1.66663 8.08376 1.66663 15.9998Z" fill="#1F2D3D"/>
</svg>
