<svg width="67" height="19" viewBox="0 0 67 19" fill="none" xmlns="http://www.w3.org/2000/svg">
<rect width="66.2802" height="18.139" rx="8.60834" fill="#0A0A0A"/>
<ellipse cx="57.0665" cy="9.0695" rx="9.21397" ry="9.0695" fill="#0A0A0A"/>
<g opacity="0.7">
<path d="M57.0836 4.08276C59.9041 4.0829 62.19 6.37603 62.1901 9.20386C62.1901 12.0317 59.9041 14.3248 57.0836 14.325C54.263 14.325 51.9772 12.0318 51.9772 9.20386C51.9772 6.37595 54.2631 4.08276 57.0836 4.08276Z" fill="url(#paint0_radial_2_68530)"/>
<g clip-path="url(#paint1_angular_2_68530_clip_path)" data-figma-skip-parse="true"><g transform="matrix(0 0.00495912 -0.00494408 0 57.0834 9.20399)"><foreignObject x="-1065.62" y="-1065.62" width="2131.24" height="2131.24"><div xmlns="http://www.w3.org/1999/xhtml" style="background:conic-gradient(from 90deg,rgba(0, 0, 0, 0) 0deg,rgba(0, 0, 0, 0) 148.125deg,rgba(0, 0, 0, 1) 183.75deg,rgba(0, 0, 0, 0) 294.375deg,rgba(0, 0, 0, 0) 360deg);height:100%;width:100%;opacity:1"></div></foreignObject></g></g><path d="M57.0836 4.08276C59.9041 4.0829 62.19 6.37603 62.1901 9.20386C62.1901 12.0317 59.9041 14.3248 57.0836 14.325C54.263 14.325 51.9772 12.0318 51.9772 9.20386C51.9772 6.37595 54.2631 4.08276 57.0836 4.08276Z" data-figma-gradient-fill="{&#34;type&#34;:&#34;GRADIENT_ANGULAR&#34;,&#34;stops&#34;:[{&#34;color&#34;:{&#34;r&#34;:0.0,&#34;g&#34;:0.0,&#34;b&#34;:0.0,&#34;a&#34;:0.0},&#34;position&#34;:0.41145834326744080},{&#34;color&#34;:{&#34;r&#34;:0.0,&#34;g&#34;:0.0,&#34;b&#34;:0.0,&#34;a&#34;:1.0},&#34;position&#34;:0.51041668653488159},{&#34;color&#34;:{&#34;r&#34;:0.0,&#34;g&#34;:0.0,&#34;b&#34;:0.0,&#34;a&#34;:0.0},&#34;position&#34;:0.81770831346511841}],&#34;stopsVar&#34;:[],&#34;transform&#34;:{&#34;m00&#34;:6.0547535020249012e-16,&#34;m01&#34;:-9.8881626129150391,&#34;m02&#34;:62.027442932128906,&#34;m10&#34;:9.9182357788085938,&#34;m11&#34;:6.0731679982982097e-16,&#34;m12&#34;:4.2448730468750},&#34;opacity&#34;:1.0,&#34;blendMode&#34;:&#34;NORMAL&#34;,&#34;visible&#34;:true}"/>
<g clip-path="url(#paint2_angular_2_68530_clip_path)" data-figma-skip-parse="true"><g transform="matrix(0 0.00495912 -0.00494408 0 57.0834 9.20399)"><foreignObject x="-1065.62" y="-1065.62" width="2131.24" height="2131.24"><div xmlns="http://www.w3.org/1999/xhtml" style="background:conic-gradient(from 90deg,rgba(0, 0, 0, 1) 0deg,rgba(0, 0, 0, 0) 60deg,rgba(0, 0, 0, 0) 318.75deg,rgba(0, 0, 0, 1) 360deg);height:100%;width:100%;opacity:1"></div></foreignObject></g></g><path d="M57.0836 4.08276C59.9041 4.0829 62.19 6.37603 62.1901 9.20386C62.1901 12.0317 59.9041 14.3248 57.0836 14.325C54.263 14.325 51.9772 12.0318 51.9772 9.20386C51.9772 6.37595 54.2631 4.08276 57.0836 4.08276Z" data-figma-gradient-fill="{&#34;type&#34;:&#34;GRADIENT_ANGULAR&#34;,&#34;stops&#34;:[{&#34;color&#34;:{&#34;r&#34;:0.0,&#34;g&#34;:0.0,&#34;b&#34;:0.0,&#34;a&#34;:1.0},&#34;position&#34;:0.0},{&#34;color&#34;:{&#34;r&#34;:0.0,&#34;g&#34;:0.0,&#34;b&#34;:0.0,&#34;a&#34;:0.0},&#34;position&#34;:0.16666667163372040},{&#34;color&#34;:{&#34;r&#34;:0.0,&#34;g&#34;:0.0,&#34;b&#34;:0.0,&#34;a&#34;:0.0},&#34;position&#34;:0.88541668653488159}],&#34;stopsVar&#34;:[],&#34;transform&#34;:{&#34;m00&#34;:6.0547535020249012e-16,&#34;m01&#34;:-9.8881626129150391,&#34;m02&#34;:62.027442932128906,&#34;m10&#34;:9.9182357788085938,&#34;m11&#34;:6.0731679982982097e-16,&#34;m12&#34;:4.2448730468750},&#34;opacity&#34;:1.0,&#34;blendMode&#34;:&#34;NORMAL&#34;,&#34;visible&#34;:true}"/>
<path d="M57.0836 4.08276C59.9041 4.0829 62.19 6.37603 62.1901 9.20386C62.1901 12.0317 59.9041 14.3248 57.0836 14.325C54.263 14.325 51.9772 12.0318 51.9772 9.20386C51.9772 6.37595 54.2631 4.08276 57.0836 4.08276Z" stroke="#080F21" stroke-width="0.324437"/>
</g>
<line opacity="0.7" x1="57.0763" y1="4.24487" x2="57.0763" y2="14.1631" stroke="black" stroke-width="0.811093"/>
<defs>
<clipPath id="paint1_angular_2_68530_clip_path"><path d="M57.0836 4.08276C59.9041 4.0829 62.19 6.37603 62.1901 9.20386C62.1901 12.0317 59.9041 14.3248 57.0836 14.325C54.263 14.325 51.9772 12.0318 51.9772 9.20386C51.9772 6.37595 54.2631 4.08276 57.0836 4.08276Z"/></clipPath><clipPath id="paint2_angular_2_68530_clip_path"><path d="M57.0836 4.08276C59.9041 4.0829 62.19 6.37603 62.1901 9.20386C62.1901 12.0317 59.9041 14.3248 57.0836 14.325C54.263 14.325 51.9772 12.0318 51.9772 9.20386C51.9772 6.37595 54.2631 4.08276 57.0836 4.08276Z"/></clipPath><radialGradient id="paint0_radial_2_68530" cx="0" cy="0" r="1" gradientUnits="userSpaceOnUse" gradientTransform="translate(57.0834 9.20399) rotate(90) scale(4.95912 4.94408)">
<stop offset="0.213542"/>
<stop offset="0.270833" stop-color="#081A32"/>
<stop offset="0.395833" stop-color="#1F3A58"/>
<stop offset="0.515625" stop-color="#375F90"/>
<stop offset="0.713542" stop-color="#274871"/>
<stop offset="0.916667" stop-color="#0D1528"/>
</radialGradient>
</defs>
</svg>
