<svg width="97" height="27" viewBox="0 0 97 27" fill="none" xmlns="http://www.w3.org/2000/svg">
<rect width="96.7429" height="26.4758" rx="12.5648" fill="#0A0A0A"/>
<ellipse cx="83.2945" cy="13.2379" rx="13.4488" ry="13.2379" fill="#0A0A0A"/>
<g opacity="0.7">
<path d="M83.3195 5.95898C87.4363 5.9592 90.7726 9.30604 90.7726 13.4336C90.7726 17.5612 87.4363 20.909 83.3195 20.9092C79.2026 20.9092 75.8664 17.5613 75.8664 13.4336C75.8664 9.30591 79.2026 5.95898 83.3195 5.95898Z" fill="url(#paint0_radial_3169_80776)"/>
<g clip-path="url(#paint1_angular_3169_80776_clip_path)" data-figma-skip-parse="true"><g transform="matrix(0 0.00723835 -0.00721641 0 83.3191 13.4337)"><foreignObject x="-1065.62" y="-1065.62" width="2131.24" height="2131.24"><div xmlns="http://www.w3.org/1999/xhtml" style="background:conic-gradient(from 90deg,rgba(0, 0, 0, 0) 0deg,rgba(0, 0, 0, 0) 148.125deg,rgba(0, 0, 0, 1) 183.75deg,rgba(0, 0, 0, 0) 294.375deg,rgba(0, 0, 0, 0) 360deg);height:100%;width:100%;opacity:1"></div></foreignObject></g></g><path d="M83.3195 5.95898C87.4363 5.9592 90.7726 9.30604 90.7726 13.4336C90.7726 17.5612 87.4363 20.909 83.3195 20.9092C79.2026 20.9092 75.8664 17.5613 75.8664 13.4336C75.8664 9.30591 79.2026 5.95898 83.3195 5.95898Z" data-figma-gradient-fill="{&#34;type&#34;:&#34;GRADIENT_ANGULAR&#34;,&#34;stops&#34;:[{&#34;color&#34;:{&#34;r&#34;:0.0,&#34;g&#34;:0.0,&#34;b&#34;:0.0,&#34;a&#34;:0.0},&#34;position&#34;:0.41145834326744080},{&#34;color&#34;:{&#34;r&#34;:0.0,&#34;g&#34;:0.0,&#34;b&#34;:0.0,&#34;a&#34;:1.0},&#34;position&#34;:0.51041668653488159},{&#34;color&#34;:{&#34;r&#34;:0.0,&#34;g&#34;:0.0,&#34;b&#34;:0.0,&#34;a&#34;:0.0},&#34;position&#34;:0.81770831346511841}],&#34;stopsVar&#34;:[],&#34;transform&#34;:{&#34;m00&#34;:8.8375489601220806e-16,&#34;m01&#34;:-14.432811737060547,&#34;m02&#34;:90.535537719726562,&#34;m10&#34;:14.476706504821777,&#34;m11&#34;:8.8644263743296436e-16,&#34;m12&#34;:6.19531250},&#34;opacity&#34;:1.0,&#34;blendMode&#34;:&#34;NORMAL&#34;,&#34;visible&#34;:true}"/>
<g clip-path="url(#paint2_angular_3169_80776_clip_path)" data-figma-skip-parse="true"><g transform="matrix(0 0.00723835 -0.00721641 0 83.3191 13.4337)"><foreignObject x="-1065.62" y="-1065.62" width="2131.24" height="2131.24"><div xmlns="http://www.w3.org/1999/xhtml" style="background:conic-gradient(from 90deg,rgba(0, 0, 0, 1) 0deg,rgba(0, 0, 0, 0) 60deg,rgba(0, 0, 0, 0) 318.75deg,rgba(0, 0, 0, 1) 360deg);height:100%;width:100%;opacity:1"></div></foreignObject></g></g><path d="M83.3195 5.95898C87.4363 5.9592 90.7726 9.30604 90.7726 13.4336C90.7726 17.5612 87.4363 20.909 83.3195 20.9092C79.2026 20.9092 75.8664 17.5613 75.8664 13.4336C75.8664 9.30591 79.2026 5.95898 83.3195 5.95898Z" data-figma-gradient-fill="{&#34;type&#34;:&#34;GRADIENT_ANGULAR&#34;,&#34;stops&#34;:[{&#34;color&#34;:{&#34;r&#34;:0.0,&#34;g&#34;:0.0,&#34;b&#34;:0.0,&#34;a&#34;:1.0},&#34;position&#34;:0.0},{&#34;color&#34;:{&#34;r&#34;:0.0,&#34;g&#34;:0.0,&#34;b&#34;:0.0,&#34;a&#34;:0.0},&#34;position&#34;:0.16666667163372040},{&#34;color&#34;:{&#34;r&#34;:0.0,&#34;g&#34;:0.0,&#34;b&#34;:0.0,&#34;a&#34;:0.0},&#34;position&#34;:0.88541668653488159}],&#34;stopsVar&#34;:[],&#34;transform&#34;:{&#34;m00&#34;:8.8375489601220806e-16,&#34;m01&#34;:-14.432811737060547,&#34;m02&#34;:90.535537719726562,&#34;m10&#34;:14.476706504821777,&#34;m11&#34;:8.8644263743296436e-16,&#34;m12&#34;:6.19531250},&#34;opacity&#34;:1.0,&#34;blendMode&#34;:&#34;NORMAL&#34;,&#34;visible&#34;:true}"/>
<path d="M83.3195 5.95898C87.4363 5.9592 90.7726 9.30604 90.7726 13.4336C90.7726 17.5612 87.4363 20.909 83.3195 20.9092C79.2026 20.9092 75.8664 17.5613 75.8664 13.4336C75.8664 9.30591 79.2026 5.95898 83.3195 5.95898Z" stroke="#080F21" stroke-width="0.47355"/>
</g>
<line opacity="0.7" x1="83.3088" y1="6.19531" x2="83.3088" y2="20.672" stroke="black" stroke-width="1.18388"/>
<defs>
<clipPath id="paint1_angular_3169_80776_clip_path"><path d="M83.3195 5.95898C87.4363 5.9592 90.7726 9.30604 90.7726 13.4336C90.7726 17.5612 87.4363 20.909 83.3195 20.9092C79.2026 20.9092 75.8664 17.5613 75.8664 13.4336C75.8664 9.30591 79.2026 5.95898 83.3195 5.95898Z"/></clipPath><clipPath id="paint2_angular_3169_80776_clip_path"><path d="M83.3195 5.95898C87.4363 5.9592 90.7726 9.30604 90.7726 13.4336C90.7726 17.5612 87.4363 20.909 83.3195 20.9092C79.2026 20.9092 75.8664 17.5613 75.8664 13.4336C75.8664 9.30591 79.2026 5.95898 83.3195 5.95898Z"/></clipPath><radialGradient id="paint0_radial_3169_80776" cx="0" cy="0" r="1" gradientUnits="userSpaceOnUse" gradientTransform="translate(83.3191 13.4337) rotate(90) scale(7.23835 7.21641)">
<stop offset="0.213542"/>
<stop offset="0.270833" stop-color="#081A32"/>
<stop offset="0.395833" stop-color="#1F3A58"/>
<stop offset="0.515625" stop-color="#375F90"/>
<stop offset="0.713542" stop-color="#274871"/>
<stop offset="0.916667" stop-color="#0D1528"/>
</radialGradient>
</defs>
</svg>
