<svg width="70" height="12" viewBox="0 0 70 12" fill="none" xmlns="http://www.w3.org/2000/svg">
<path d="M11.0264 6.20822C11.0264 7.70398 10.583 8.89453 9.69419 9.78342C8.68561 10.8401 7.36945 11.3684 5.75286 11.3684C4.20422 11.3684 2.88627 10.8329 1.80437 9.762C0.720678 8.68926 0.178833 7.36128 0.178833 5.77627C0.178833 4.18947 0.720678 2.86149 1.80437 1.79053C2.88627 0.717796 4.20422 0.182321 5.75286 0.182321C6.52181 0.182321 7.25678 0.332253 7.95421 0.630335C8.65342 0.930202 9.21315 1.32824 9.6316 1.82623L8.68918 2.76867C7.97924 1.92083 7.00106 1.49781 5.75106 1.49781C4.62088 1.49781 3.64449 1.89406 2.8201 2.68657C1.99571 3.47907 1.58441 4.50897 1.58441 5.77448C1.58441 7.03999 1.99571 8.06989 2.8201 8.8624C3.64449 9.6549 4.62088 10.0512 5.75106 10.0512C6.9492 10.0512 7.94884 9.65312 8.7482 8.85526C9.2668 8.33584 9.56722 7.61295 9.64769 6.68658H5.75106V5.39965H10.9496C11.0032 5.67988 11.0264 5.9494 11.0264 6.20822Z" fill="white"/>
<path d="M19.2705 1.7353H14.385V5.13023H18.7913V6.41716H14.385V9.81207H19.2705V11.1293H13.0062V0.419815H19.2705V1.7353Z" fill="white"/>
<path d="M25.084 11.1293H23.7052V1.7353H20.7081V0.419815H28.0811V1.7353H25.084V11.1293Z" fill="white"/>
<path d="M33.4154 11.1293V0.419815H34.7942V11.1293H33.4154Z" fill="white"/>
<path d="M40.9085 11.1293H39.5298V1.7353H36.5326V0.419815H43.9057V1.7353H40.9085V11.1293Z" fill="white"/>
<path d="M57.8627 9.74602C56.8076 10.8277 55.4968 11.3685 53.9285 11.3685C52.3602 11.3685 51.0494 10.8277 49.9961 9.74602C48.941 8.66436 48.4153 7.33994 48.4153 5.77457C48.4153 4.20919 48.941 2.88478 49.9961 1.80311C51.0494 0.721449 52.3602 0.178833 53.9285 0.178833C55.4879 0.178833 56.7969 0.723233 57.8555 1.81025C58.9142 2.89727 59.4435 4.21811 59.4435 5.77457C59.4435 7.33994 58.916 8.66436 57.8627 9.74602ZM51.0136 8.8482C51.8076 9.65142 52.7786 10.0512 53.9285 10.0512C55.0783 10.0512 56.0512 9.64963 56.8434 8.8482C57.6374 8.04499 58.0361 7.02044 58.0361 5.77457C58.0361 4.52869 57.6374 3.50414 56.8434 2.70093C56.0512 1.89771 55.0783 1.49789 53.9285 1.49789C52.7786 1.49789 51.8076 1.8995 51.0136 2.70093C50.2214 3.50414 49.8226 4.52869 49.8226 5.77457C49.8226 7.02044 50.2214 8.04499 51.0136 8.8482Z" fill="white"/>
<path d="M61.3784 11.1293V0.419815H63.0558L68.2704 8.75005H68.3294L68.2704 6.68668V0.419815H69.6492V11.1293H68.2096L62.7536 2.39394H62.6946L62.7536 4.45731V11.1293H61.3784Z" fill="white"/>
<path d="M11.0264 6.20822C11.0264 7.70398 10.583 8.89453 9.69419 9.78342C8.68561 10.8401 7.36945 11.3684 5.75286 11.3684C4.20422 11.3684 2.88627 10.8329 1.80437 9.762C0.720678 8.68926 0.178833 7.36128 0.178833 5.77627C0.178833 4.18947 0.720678 2.86149 1.80437 1.79053C2.88627 0.717796 4.20422 0.182321 5.75286 0.182321C6.52181 0.182321 7.25678 0.332253 7.95421 0.630335C8.65342 0.930202 9.21315 1.32824 9.6316 1.82623L8.68918 2.76867C7.97924 1.92083 7.00106 1.49781 5.75106 1.49781C4.62088 1.49781 3.64449 1.89406 2.8201 2.68657C1.99571 3.47907 1.58441 4.50897 1.58441 5.77448C1.58441 7.03999 1.99571 8.06989 2.8201 8.8624C3.64449 9.6549 4.62088 10.0512 5.75106 10.0512C6.9492 10.0512 7.94884 9.65312 8.7482 8.85526C9.2668 8.33584 9.56722 7.61295 9.64769 6.68658H5.75106V5.39965H10.9496C11.0032 5.67988 11.0264 5.9494 11.0264 6.20822Z" stroke="white" stroke-width="0.357653" stroke-miterlimit="10"/>
<path d="M19.2705 1.7353H14.385V5.13023H18.7913V6.41716H14.385V9.81207H19.2705V11.1293H13.0062V0.419815H19.2705V1.7353Z" stroke="white" stroke-width="0.357653" stroke-miterlimit="10"/>
<path d="M25.084 11.1293H23.7052V1.7353H20.7081V0.419815H28.0811V1.7353H25.084V11.1293Z" stroke="white" stroke-width="0.357653" stroke-miterlimit="10"/>
<path d="M33.4154 11.1293V0.419815H34.7942V11.1293H33.4154Z" stroke="white" stroke-width="0.357653" stroke-miterlimit="10"/>
<path d="M40.9085 11.1293H39.5298V1.7353H36.5326V0.419815H43.9057V1.7353H40.9085V11.1293Z" stroke="white" stroke-width="0.357653" stroke-miterlimit="10"/>
<path d="M57.8627 9.74602C56.8076 10.8277 55.4968 11.3685 53.9285 11.3685C52.3602 11.3685 51.0494 10.8277 49.9961 9.74602C48.941 8.66436 48.4153 7.33994 48.4153 5.77457C48.4153 4.20919 48.941 2.88478 49.9961 1.80311C51.0494 0.721449 52.3602 0.178833 53.9285 0.178833C55.4879 0.178833 56.7969 0.723233 57.8555 1.81025C58.9142 2.89727 59.4435 4.21811 59.4435 5.77457C59.4435 7.33994 58.916 8.66436 57.8627 9.74602ZM51.0136 8.8482C51.8076 9.65142 52.7786 10.0512 53.9285 10.0512C55.0783 10.0512 56.0512 9.64963 56.8434 8.8482C57.6374 8.04499 58.0361 7.02044 58.0361 5.77457C58.0361 4.52869 57.6374 3.50414 56.8434 2.70093C56.0512 1.89771 55.0783 1.49789 53.9285 1.49789C52.7786 1.49789 51.8076 1.8995 51.0136 2.70093C50.2214 3.50414 49.8226 4.52869 49.8226 5.77457C49.8226 7.02044 50.2214 8.04499 51.0136 8.8482Z" stroke="white" stroke-width="0.357653" stroke-miterlimit="10"/>
<path d="M61.3784 11.1293V0.419815H63.0558L68.2704 8.75005H68.3294L68.2704 6.68668V0.419815H69.6492V11.1293H68.2096L62.7536 2.39394H62.6946L62.7536 4.45731V11.1293H61.3784Z" stroke="white" stroke-width="0.357653" stroke-miterlimit="10"/>
</svg>
