<svg width="178" height="53" viewBox="0 0 178 53" fill="none" xmlns="http://www.w3.org/2000/svg">
<rect x="0.657303" y="0.657303" width="176.157" height="51.2697" rx="5.91573" fill="black"/>
<rect x="0.657303" y="0.657303" width="176.157" height="51.2697" rx="5.91573" stroke="#A6A6A6" stroke-width="1.31461"/>
<path d="M89.5721 28.5941C86.4801 28.5941 83.96 30.9459 83.96 34.1851C83.96 37.4046 86.4801 39.7761 89.5721 39.7761C92.6653 39.7761 95.1854 37.4046 95.1854 34.1851C95.1841 30.9459 92.664 28.5941 89.5721 28.5941ZM89.5721 37.5755C87.8775 37.5755 86.417 36.178 86.417 34.1864C86.417 32.1737 87.8788 30.7973 89.5721 30.7973C91.2666 30.7973 92.7271 32.1737 92.7271 34.1864C92.7271 36.1767 91.2666 37.5755 89.5721 37.5755ZM77.3278 28.5941C74.2359 28.5941 71.7158 30.9459 71.7158 34.1851C71.7158 37.4046 74.2359 39.7761 77.3278 39.7761C80.4211 39.7761 82.9412 37.4046 82.9412 34.1851C82.9412 30.9459 80.4211 28.5941 77.3278 28.5941ZM77.3278 37.5755C75.6333 37.5755 74.1728 36.178 74.1728 34.1864C74.1728 32.1737 75.6346 30.7973 77.3278 30.7973C79.0223 30.7973 80.4829 32.1737 80.4829 34.1864C80.4842 36.1767 79.0223 37.5755 77.3278 37.5755ZM62.7646 30.3109V32.6825H68.4411C68.2715 34.0168 67.8271 34.9909 67.1488 35.668C66.3232 36.4935 65.031 37.4046 62.7646 37.4046C59.2704 37.4046 56.5386 34.5874 56.5386 31.0931C56.5386 27.5989 59.2704 24.7817 62.7646 24.7817C64.6497 24.7817 66.0261 25.5231 67.0423 26.4762L68.7158 24.8027C67.296 23.4474 65.4122 22.4102 62.7646 22.4102C57.9781 22.4102 53.9541 26.3067 53.9541 31.0931C53.9541 35.8796 57.9781 39.7761 62.7646 39.7761C65.3478 39.7761 67.2974 38.9282 68.821 37.3401C70.388 35.7731 70.8757 33.5699 70.8757 31.7912C70.8757 31.2417 70.8337 30.7329 70.7482 30.3096H62.7646V30.3109ZM122.327 32.1527C121.861 30.9038 120.442 28.5941 117.54 28.5941C114.66 28.5941 112.266 30.8605 112.266 34.1851C112.266 37.3191 114.639 39.7761 117.815 39.7761C120.377 39.7761 121.86 38.2091 122.475 37.2981L120.569 36.0269C119.934 36.9589 119.065 37.5728 117.815 37.5728C116.566 37.5728 115.676 37.001 115.104 35.8783L122.581 32.7863L122.327 32.1527ZM114.702 34.0168C114.639 31.8556 116.376 30.7553 117.626 30.7553C118.6 30.7553 119.425 31.243 119.702 31.9411L114.702 34.0168ZM108.625 39.4383H111.08V23.0044H108.625V39.4383ZM104.599 29.8443H104.515C103.964 29.187 102.905 28.5941 101.572 28.5941C98.7756 28.5941 96.2135 31.0511 96.2135 34.2074C96.2135 37.3415 98.7756 39.7774 101.572 39.7774C102.906 39.7774 103.964 39.1845 104.515 38.5075H104.599V39.3121C104.599 41.4509 103.456 42.5946 101.614 42.5946C100.11 42.5946 99.1779 41.5153 98.7967 40.6043L96.6578 41.4943C97.2717 42.9759 98.9018 44.7979 101.614 44.7979C104.494 44.7979 106.93 43.1034 106.93 38.9729V28.9345H104.601V29.8443H104.599ZM101.783 37.5755C100.089 37.5755 98.6705 36.1557 98.6705 34.2074C98.6705 32.2368 100.089 30.7973 101.783 30.7973C103.456 30.7973 104.769 32.2368 104.769 34.2074C104.769 36.1557 103.456 37.5755 101.783 37.5755ZM133.835 23.0044H127.957V39.4383H130.409V33.2123H133.834C136.552 33.2123 139.226 31.2443 139.226 28.109C139.226 24.9736 136.553 23.0044 133.835 23.0044ZM133.898 30.9249H130.409V25.2918H133.898C135.732 25.2918 136.773 26.8101 136.773 28.109C136.773 29.3815 135.732 30.9249 133.898 30.9249ZM149.058 28.5651C147.282 28.5651 145.443 29.3473 144.682 31.0813L146.859 31.9897C147.324 31.0813 148.192 30.7842 149.1 30.7842C150.369 30.7842 151.658 31.5454 151.679 32.8981V33.0677C151.235 32.814 150.283 32.434 149.121 32.434C146.775 32.434 144.385 33.7237 144.385 36.1333C144.385 38.3327 146.309 39.7485 148.465 39.7485C150.114 39.7485 151.023 39.0084 151.594 38.1407H151.678V39.4093H154.047V33.1084C154.048 30.1926 151.869 28.5651 149.058 28.5651ZM148.761 37.5715C147.959 37.5715 146.838 37.1692 146.838 36.1754C146.838 34.9068 148.234 34.4204 149.439 34.4204C150.516 34.4204 151.025 34.6531 151.679 34.9699C151.489 36.4935 150.178 37.5715 148.761 37.5715ZM162.673 28.924L159.861 36.0492H159.777L156.859 28.924H154.217L158.593 38.8822L156.098 44.4219H158.656L165.401 28.924H162.673ZM140.58 39.4383H143.032V23.0044H140.58V39.4383Z" fill="white"/>
<path d="M62.3361 13.4656C62.3361 14.5672 62.0101 15.4441 61.3567 16.0987C60.6153 16.877 59.6477 17.2661 58.4593 17.2661C57.3209 17.2661 56.352 16.8717 55.5567 16.083C54.76 15.2929 54.3617 14.3148 54.3617 13.1474C54.3617 11.9788 54.76 11.0007 55.5567 10.2119C56.352 9.42185 57.3209 9.02747 58.4593 9.02747C59.0246 9.02747 59.5649 9.1379 60.0776 9.35744C60.5916 9.57829 61.0031 9.87145 61.3107 10.2382L60.6179 10.9323C60.096 10.3079 59.3769 9.99634 58.458 9.99634C57.6272 9.99634 56.9094 10.2882 56.3034 10.8719C55.6973 11.4555 55.395 12.2141 55.395 13.1461C55.395 14.0782 55.6973 14.8367 56.3034 15.4204C56.9094 16.0041 57.6272 16.2959 58.458 16.2959C59.3388 16.2959 60.0737 16.0028 60.6613 15.4151C61.0425 15.0326 61.2634 14.5002 61.3225 13.8179H58.458V12.8701H62.2796C62.319 13.0765 62.3361 13.275 62.3361 13.4656Z" fill="white"/>
<path d="M68.3966 10.1713H64.8051V12.6716H68.0442V13.6195H64.8051V16.1198H68.3966V17.09H63.7915V9.20239H68.3966V10.1713Z" fill="white"/>
<path d="M72.6702 17.09H71.6566V10.1713H69.4534V9.20239H74.8735V10.1713H72.6702V17.09Z" fill="white"/>
<path d="M78.7949 17.09V9.20239H79.8085V17.09H78.7949Z" fill="white"/>
<path d="M84.3033 17.09H83.2898V10.1713H81.0865V9.20239H86.5066V10.1713H84.3033V17.09Z" fill="white"/>
<path d="M96.7668 16.0712C95.9912 16.8678 95.0276 17.2662 93.8747 17.2662C92.7218 17.2662 91.7582 16.8678 90.9838 16.0712C90.2082 15.2745 89.8217 14.2991 89.8217 13.1462C89.8217 11.9933 90.2082 11.0178 90.9838 10.2212C91.7582 9.42454 92.7218 9.0249 93.8747 9.0249C95.021 9.0249 95.9833 9.42586 96.7616 10.2265C97.5398 11.027 97.9289 11.9999 97.9289 13.1462C97.9289 14.2991 97.5411 15.2745 96.7668 16.0712ZM91.7319 15.4099C92.3155 16.0015 93.0294 16.296 93.8747 16.296C94.72 16.296 95.4351 16.0002 96.0175 15.4099C96.6012 14.8184 96.8943 14.0638 96.8943 13.1462C96.8943 12.2286 96.6012 11.474 96.0175 10.8824C95.4351 10.2909 94.72 9.9964 93.8747 9.9964C93.0294 9.9964 92.3155 10.2922 91.7319 10.8824C91.1495 11.474 90.8563 12.2286 90.8563 13.1462C90.8563 14.0638 91.1495 14.8184 91.7319 15.4099Z" fill="white"/>
<path d="M99.3513 17.09V9.20239H100.584L104.418 15.3377H104.461L104.418 13.818V9.20239H105.431V17.09H104.373L100.362 10.6563H100.319L100.362 12.176V17.09H99.3513Z" fill="white"/>
<path d="M62.3361 13.4656C62.3361 14.5672 62.0101 15.4441 61.3567 16.0987C60.6153 16.877 59.6477 17.2661 58.4593 17.2661C57.3209 17.2661 56.352 16.8717 55.5567 16.083C54.76 15.2929 54.3617 14.3148 54.3617 13.1474C54.3617 11.9788 54.76 11.0007 55.5567 10.2119C56.352 9.42185 57.3209 9.02747 58.4593 9.02747C59.0246 9.02747 59.5649 9.1379 60.0776 9.35744C60.5916 9.57829 61.0031 9.87145 61.3107 10.2382L60.6179 10.9323C60.096 10.3079 59.3769 9.99634 58.458 9.99634C57.6272 9.99634 56.9094 10.2882 56.3034 10.8719C55.6973 11.4555 55.395 12.2141 55.395 13.1461C55.395 14.0782 55.6973 14.8367 56.3034 15.4204C56.9094 16.0041 57.6272 16.2959 58.458 16.2959C59.3388 16.2959 60.0737 16.0028 60.6613 15.4151C61.0425 15.0326 61.2634 14.5002 61.3225 13.8179H58.458V12.8701H62.2796C62.319 13.0765 62.3361 13.275 62.3361 13.4656Z" stroke="white" stroke-width="0.262921" stroke-miterlimit="10"/>
<path d="M68.3966 10.1713H64.8051V12.6716H68.0442V13.6195H64.8051V16.1198H68.3966V17.09H63.7915V9.20239H68.3966V10.1713Z" stroke="white" stroke-width="0.262921" stroke-miterlimit="10"/>
<path d="M72.6702 17.09H71.6566V10.1713H69.4534V9.20239H74.8735V10.1713H72.6702V17.09Z" stroke="white" stroke-width="0.262921" stroke-miterlimit="10"/>
<path d="M78.7949 17.09V9.20239H79.8085V17.09H78.7949Z" stroke="white" stroke-width="0.262921" stroke-miterlimit="10"/>
<path d="M84.3033 17.09H83.2898V10.1713H81.0865V9.20239H86.5066V10.1713H84.3033V17.09Z" stroke="white" stroke-width="0.262921" stroke-miterlimit="10"/>
<path d="M96.7668 16.0712C95.9912 16.8678 95.0276 17.2662 93.8747 17.2662C92.7218 17.2662 91.7582 16.8678 90.9838 16.0712C90.2082 15.2745 89.8217 14.2991 89.8217 13.1462C89.8217 11.9933 90.2082 11.0178 90.9838 10.2212C91.7582 9.42454 92.7218 9.0249 93.8747 9.0249C95.021 9.0249 95.9833 9.42586 96.7616 10.2265C97.5398 11.027 97.9289 11.9999 97.9289 13.1462C97.9289 14.2991 97.5411 15.2745 96.7668 16.0712ZM91.7319 15.4099C92.3155 16.0015 93.0294 16.296 93.8747 16.296C94.72 16.296 95.4351 16.0002 96.0175 15.4099C96.6012 14.8184 96.8943 14.0638 96.8943 13.1462C96.8943 12.2286 96.6012 11.474 96.0175 10.8824C95.4351 10.2909 94.72 9.9964 93.8747 9.9964C93.0294 9.9964 92.3155 10.2922 91.7319 10.8824C91.1495 11.474 90.8563 12.2286 90.8563 13.1462C90.8563 14.0638 91.1495 14.8184 91.7319 15.4099Z" stroke="white" stroke-width="0.262921" stroke-miterlimit="10"/>
<path d="M99.3513 17.09V9.20239H100.584L104.418 15.3377H104.461L104.418 13.818V9.20239H105.431V17.09H104.373L100.362 10.6563H100.319L100.362 12.176V17.09H99.3513Z" stroke="white" stroke-width="0.262921" stroke-miterlimit="10"/>
<g filter="url(#filter0_ii_2_68715)">
<path d="M13.7193 9.90993C13.3367 10.3148 13.1106 10.9432 13.1106 11.757V40.8308C13.1106 41.6458 13.3367 42.2729 13.7193 42.6778L13.8165 42.7725L30.1032 26.4858V26.2939V26.1019L13.8165 9.81397L13.7193 9.90993Z" fill="url(#paint0_linear_2_68715)"/>
<path d="M35.5312 31.9162L30.1032 26.4856V26.2936V26.1017L35.5325 20.6724L35.6548 20.742L42.0872 24.3966C43.9237 25.4404 43.9237 27.1481 42.0872 28.1932L35.6548 31.8478L35.5312 31.9162Z" fill="url(#paint1_linear_2_68715)"/>
<g filter="url(#filter1_i_2_68715)">
<path d="M35.6548 31.8464L30.1019 26.2935L13.7192 42.6774C14.324 43.3189 15.3244 43.3978 16.451 42.7589L35.6548 31.8464Z" fill="url(#paint2_linear_2_68715)"/>
</g>
<path d="M35.6548 20.7407L16.451 9.8295C15.3244 9.18929 14.324 9.26948 13.7192 9.91101L30.1032 26.295L35.6548 20.7407Z" fill="url(#paint3_linear_2_68715)"/>
</g>
<defs>
<filter id="filter0_ii_2_68715" x="13.1106" y="9.3877" width="30.3539" height="33.8125" filterUnits="userSpaceOnUse" color-interpolation-filters="sRGB">
<feFlood flood-opacity="0" result="BackgroundImageFix"/>
<feBlend mode="normal" in="SourceGraphic" in2="BackgroundImageFix" result="shape"/>
<feColorMatrix in="SourceAlpha" type="matrix" values="0 0 0 0 0 0 0 0 0 0 0 0 0 0 0 0 0 0 127 0" result="hardAlpha"/>
<feOffset dy="-0.197191"/>
<feComposite in2="hardAlpha" operator="arithmetic" k2="-1" k3="1"/>
<feColorMatrix type="matrix" values="0 0 0 0 0 0 0 0 0 0 0 0 0 0 0 0 0 0 0.12 0"/>
<feBlend mode="normal" in2="shape" result="effect1_innerShadow_2_68715"/>
<feColorMatrix in="SourceAlpha" type="matrix" values="0 0 0 0 0 0 0 0 0 0 0 0 0 0 0 0 0 0 127 0" result="hardAlpha"/>
<feOffset dy="0.197191"/>
<feComposite in2="hardAlpha" operator="arithmetic" k2="-1" k3="1"/>
<feColorMatrix type="matrix" values="0 0 0 0 1 0 0 0 0 1 0 0 0 0 1 0 0 0 0.25 0"/>
<feBlend mode="normal" in2="effect1_innerShadow_2_68715" result="effect2_innerShadow_2_68715"/>
</filter>
<filter id="filter1_i_2_68715" x="13.7192" y="26.2935" width="21.9355" height="16.9067" filterUnits="userSpaceOnUse" color-interpolation-filters="sRGB">
<feFlood flood-opacity="0" result="BackgroundImageFix"/>
<feBlend mode="normal" in="SourceGraphic" in2="BackgroundImageFix" result="shape"/>
<feColorMatrix in="SourceAlpha" type="matrix" values="0 0 0 0 0 0 0 0 0 0 0 0 0 0 0 0 0 0 127 0" result="hardAlpha"/>
<feOffset dy="-0.197191"/>
<feComposite in2="hardAlpha" operator="arithmetic" k2="-1" k3="1"/>
<feColorMatrix type="matrix" values="0 0 0 0 0 0 0 0 0 0 0 0 0 0 0 0 0 0 0.08 0"/>
<feBlend mode="normal" in2="shape" result="effect1_innerShadow_2_68715"/>
</filter>
<linearGradient id="paint0_linear_2_68715" x1="28.6595" y1="11.4493" x2="6.59777" y2="33.5111" gradientUnits="userSpaceOnUse">
<stop stop-color="#00A0FF"/>
<stop offset="0.0066" stop-color="#00A1FF"/>
<stop offset="0.2601" stop-color="#00BEFF"/>
<stop offset="0.5122" stop-color="#00D2FF"/>
<stop offset="0.7604" stop-color="#00DFFF"/>
<stop offset="1" stop-color="#00E3FF"/>
</linearGradient>
<linearGradient id="paint1_linear_2_68715" x1="44.4778" y1="26.2936" x2="12.6697" y2="26.2936" gradientUnits="userSpaceOnUse">
<stop stop-color="#FFE000"/>
<stop offset="0.4087" stop-color="#FFBD00"/>
<stop offset="0.7754" stop-color="#FFA500"/>
<stop offset="1" stop-color="#FF9C00"/>
</linearGradient>
<linearGradient id="paint2_linear_2_68715" x1="32.6392" y1="29.309" x2="2.72071" y2="59.2275" gradientUnits="userSpaceOnUse">
<stop stop-color="#FF3A44"/>
<stop offset="1" stop-color="#C31162"/>
</linearGradient>
<linearGradient id="paint3_linear_2_68715" x1="9.59321" y1="0.23261" x2="22.9526" y2="13.592" gradientUnits="userSpaceOnUse">
<stop stop-color="#32A071"/>
<stop offset="0.0685" stop-color="#2DA771"/>
<stop offset="0.4762" stop-color="#15CF74"/>
<stop offset="0.8009" stop-color="#06E775"/>
<stop offset="1" stop-color="#00F076"/>
</linearGradient>
</defs>
</svg>
