<svg width="136" height="28" viewBox="0 0 136 28" fill="none" xmlns="http://www.w3.org/2000/svg">
<path d="M43.4649 7.71966C39.6918 7.71966 36.6165 10.6556 36.6165 14.6992C36.6165 18.7182 39.6918 21.6787 43.4649 21.6787C47.2397 21.6787 50.315 18.7182 50.315 14.6992C50.3134 10.6556 47.2381 7.71966 43.4649 7.71966ZM43.4649 18.9315C41.3971 18.9315 39.6148 17.1871 39.6148 14.7008C39.6148 12.1883 41.3987 10.4701 43.4649 10.4701C45.5328 10.4701 47.3151 12.1883 47.3151 14.7008C47.3151 17.1854 45.5328 18.9315 43.4649 18.9315ZM28.5232 7.71966C24.75 7.71966 21.6747 10.6556 21.6747 14.6992C21.6747 18.7182 24.75 21.6787 28.5232 21.6787C32.2979 21.6787 35.3732 18.7182 35.3732 14.6992C35.3732 10.6556 32.2979 7.71966 28.5232 7.71966ZM28.5232 18.9315C26.4553 18.9315 24.673 17.1871 24.673 14.7008C24.673 12.1883 26.4569 10.4701 28.5232 10.4701C30.591 10.4701 32.3733 12.1883 32.3733 14.7008C32.3749 17.1854 30.591 18.9315 28.5232 18.9315ZM10.7515 9.86292V12.8234H17.6786C17.4716 14.4891 16.9294 15.7052 16.1016 16.5503C15.0942 17.5809 13.5172 18.7182 10.7515 18.7182C6.4875 18.7182 3.15391 15.2014 3.15391 10.8394C3.15391 6.47736 6.4875 2.96052 10.7515 2.96052C13.052 2.96052 14.7316 3.88609 15.9717 5.07587L18.0139 2.98677C16.2813 1.29482 13.9824 1.45238e-06 10.7515 1.45238e-06C4.91054 1.45238e-06 -2.93743e-07 4.86417 -2.93743e-07 10.8394C-2.93743e-07 16.8146 4.91054 21.6787 10.7515 21.6787C13.9038 21.6787 16.2829 20.6202 18.1422 18.6378C20.0545 16.6816 20.6496 13.9312 20.6496 11.7108C20.6496 11.0248 20.5983 10.3897 20.494 9.86127H10.7515V9.86292ZM83.4359 12.1621C82.868 10.603 81.1354 7.71966 77.5949 7.71966C74.08 7.71966 71.1587 10.5489 71.1587 14.6992C71.1587 18.6115 74.0544 21.6787 77.9302 21.6787C81.0568 21.6787 82.8664 19.7226 83.6172 18.5853L81.291 16.9983C80.5162 18.1619 79.4558 18.9283 77.9302 18.9283C76.4062 18.9283 75.3201 18.2144 74.6222 16.8129L83.7455 12.9531L83.4359 12.1621ZM74.1314 14.4891C74.0544 11.7912 76.1735 10.4176 77.6992 10.4176C78.8879 10.4176 79.8953 11.0264 80.2322 11.8979L74.1314 14.4891ZM66.715 21.257H69.7117V0.741771H66.715V21.257ZM61.8029 9.28033H61.7002C61.028 8.45979 59.735 7.71966 58.1083 7.71966C54.6961 7.71966 51.5695 10.7868 51.5695 14.7271C51.5695 18.6394 54.6961 21.6804 58.1083 21.6804C59.7366 21.6804 61.028 20.9402 61.7002 20.0951H61.8029V21.0994C61.8029 23.7695 60.4072 25.1972 58.1597 25.1972C56.3244 25.1972 55.187 23.8499 54.7218 22.7126L52.1117 23.8236C52.8609 25.6731 54.8501 27.9477 58.1597 27.9477C61.6745 27.9477 64.6472 25.8323 64.6472 20.676V8.1447H61.8045V9.28033H61.8029ZM58.3666 18.9315C56.2988 18.9315 54.5678 17.1592 54.5678 14.7271C54.5678 12.2671 56.2988 10.4701 58.3666 10.4701C60.4072 10.4701 62.0098 12.2671 62.0098 14.7271C62.0098 17.1592 60.4072 18.9315 58.3666 18.9315ZM97.4793 0.741771H90.3068V21.257H93.2987V13.4848H97.4777C100.795 13.4848 104.058 11.0281 104.058 7.1141C104.058 3.20011 100.797 0.741771 97.4793 0.741771ZM97.5563 10.6293H93.2987V3.59726H97.5563C99.7942 3.59726 101.065 5.49271 101.065 7.1141C101.065 8.70267 99.7942 10.6293 97.5563 10.6293ZM116.056 7.68356C113.889 7.68356 111.645 8.66 110.716 10.8246L113.372 11.9586C113.94 10.8246 114.999 10.4537 116.108 10.4537C117.656 10.4537 119.229 11.4039 119.255 13.0926V13.3043C118.713 12.9875 117.551 12.5133 116.133 12.5133C113.27 12.5133 110.353 14.1232 110.353 17.1313C110.353 19.8768 112.702 21.6443 115.333 21.6443C117.344 21.6443 118.455 20.7203 119.151 19.6372H119.253V21.2209H122.144V13.3551C122.146 9.71522 119.486 7.68356 116.056 7.68356ZM115.694 18.9266C114.715 18.9266 113.347 18.4245 113.347 17.1838C113.347 15.6001 115.05 14.9929 116.521 14.9929C117.835 14.9929 118.456 15.2834 119.255 15.6789C119.022 17.5809 117.423 18.9266 115.694 18.9266ZM132.671 8.13157L129.24 17.0263H129.137L125.576 8.13157H122.351L127.692 20.5628L124.647 27.4783H127.769L136 8.13157H132.671ZM105.711 21.257H108.702V0.741771H105.711V21.257Z" fill="white"/>
</svg>
