<svg width="37" height="41" viewBox="0 0 37 41" fill="none" xmlns="http://www.w3.org/2000/svg">
<g filter="url(#filter0_ii_2_68440)">
<path d="M0.726619 0.62204C0.269933 1.1045 -6.70507e-07 1.85326 -6.70507e-07 2.82288V37.4662C-6.70507e-07 38.4374 0.269933 39.1845 0.726619 39.667L0.842751 39.7798L20.2857 20.3732V20.1445V19.9158L0.842751 0.507691L0.726619 0.62204Z" fill="url(#paint0_linear_2_68440)"/>
<path d="M26.7656 26.8441L20.2856 20.3732V20.1445V19.9158L26.7671 13.4464L26.9131 13.5294L34.592 17.8841C36.7844 19.1279 36.7844 21.1627 34.592 22.408L26.9131 26.7627L26.7656 26.8441Z" fill="url(#paint1_linear_2_68440)"/>
<g filter="url(#filter1_i_2_68440)">
<path d="M26.9131 26.7612L20.2841 20.1445L0.726625 39.667C1.44853 40.4314 2.64282 40.5254 3.98777 39.7641L26.9131 26.7612Z" fill="url(#paint2_linear_2_68440)"/>
</g>
<path d="M26.9131 13.5279L3.98777 0.52644C2.64282 -0.236414 1.44853 -0.140861 0.726625 0.62356L20.2857 20.146L26.9131 13.5279Z" fill="url(#paint3_linear_2_68440)"/>
</g>
<defs>
<filter id="filter0_ii_2_68440" x="0" y="0" width="36.2363" height="40.2899" filterUnits="userSpaceOnUse" color-interpolation-filters="sRGB">
<feFlood flood-opacity="0" result="BackgroundImageFix"/>
<feBlend mode="normal" in="SourceGraphic" in2="BackgroundImageFix" result="shape"/>
<feColorMatrix in="SourceAlpha" type="matrix" values="0 0 0 0 0 0 0 0 0 0 0 0 0 0 0 0 0 0 127 0" result="hardAlpha"/>
<feOffset dy="-0.235405"/>
<feComposite in2="hardAlpha" operator="arithmetic" k2="-1" k3="1"/>
<feColorMatrix type="matrix" values="0 0 0 0 0 0 0 0 0 0 0 0 0 0 0 0 0 0 0.12 0"/>
<feBlend mode="normal" in2="shape" result="effect1_innerShadow_2_68440"/>
<feColorMatrix in="SourceAlpha" type="matrix" values="0 0 0 0 0 0 0 0 0 0 0 0 0 0 0 0 0 0 127 0" result="hardAlpha"/>
<feOffset dy="0.235405"/>
<feComposite in2="hardAlpha" operator="arithmetic" k2="-1" k3="1"/>
<feColorMatrix type="matrix" values="0 0 0 0 1 0 0 0 0 1 0 0 0 0 1 0 0 0 0.25 0"/>
<feBlend mode="normal" in2="effect1_innerShadow_2_68440" result="effect2_innerShadow_2_68440"/>
</filter>
<filter id="filter1_i_2_68440" x="0.726624" y="20.1445" width="26.1865" height="20.1454" filterUnits="userSpaceOnUse" color-interpolation-filters="sRGB">
<feFlood flood-opacity="0" result="BackgroundImageFix"/>
<feBlend mode="normal" in="SourceGraphic" in2="BackgroundImageFix" result="shape"/>
<feColorMatrix in="SourceAlpha" type="matrix" values="0 0 0 0 0 0 0 0 0 0 0 0 0 0 0 0 0 0 127 0" result="hardAlpha"/>
<feOffset dy="-0.235405"/>
<feComposite in2="hardAlpha" operator="arithmetic" k2="-1" k3="1"/>
<feColorMatrix type="matrix" values="0 0 0 0 0 0 0 0 0 0 0 0 0 0 0 0 0 0 0.08 0"/>
<feBlend mode="normal" in2="shape" result="effect1_innerShadow_2_68440"/>
</filter>
<linearGradient id="paint0_linear_2_68440" x1="18.5622" y1="2.45634" x2="-7.72569" y2="28.7934" gradientUnits="userSpaceOnUse">
<stop stop-color="#00A0FF"/>
<stop offset="0.0066" stop-color="#00A1FF"/>
<stop offset="0.2601" stop-color="#00BEFF"/>
<stop offset="0.5122" stop-color="#00D2FF"/>
<stop offset="0.7604" stop-color="#00DFFF"/>
<stop offset="1" stop-color="#00E3FF"/>
</linearGradient>
<linearGradient id="paint1_linear_2_68440" x1="37.4459" y1="20.1445" x2="-0.52638" y2="20.1445" gradientUnits="userSpaceOnUse">
<stop stop-color="#FFE000"/>
<stop offset="0.4087" stop-color="#FFBD00"/>
<stop offset="0.7754" stop-color="#FFA500"/>
<stop offset="1" stop-color="#FF9C00"/>
</linearGradient>
<linearGradient id="paint2_linear_2_68440" x1="23.3131" y1="23.7378" x2="-12.3365" y2="59.4542" gradientUnits="userSpaceOnUse">
<stop stop-color="#FF3A44"/>
<stop offset="1" stop-color="#C31162"/>
</linearGradient>
<linearGradient id="paint3_linear_2_68440" x1="-4.199" y1="-10.9088" x2="11.7196" y2="5.03952" gradientUnits="userSpaceOnUse">
<stop stop-color="#32A071"/>
<stop offset="0.0685" stop-color="#2DA771"/>
<stop offset="0.4762" stop-color="#15CF74"/>
<stop offset="0.8009" stop-color="#06E775"/>
<stop offset="1" stop-color="#00F076"/>
</linearGradient>
</defs>
</svg>
