<svg width="41" height="41" viewBox="0 0 41 41" fill="none" xmlns="http://www.w3.org/2000/svg">
<path d="M29.0417 11.9582C29.0417 7.9316 29.0417 5.91831 27.7909 4.6674C26.5399 3.4165 24.5266 3.4165 20.5 3.4165H15.375C11.3485 3.4165 9.33518 3.4165 8.08427 4.6674C6.83337 5.91831 6.83337 7.9316 6.83337 11.9582V29.0415C6.83337 33.0681 6.83337 35.0813 8.08427 36.3323C9.33518 37.5832 11.3485 37.5832 15.375 37.5832H20.5C24.5266 37.5832 26.5399 37.5832 27.7909 36.3323C29.0417 35.0813 29.0417 33.0681 29.0417 29.0415V27.3332" stroke="#141B34" stroke-width="2.5625" stroke-linecap="round" stroke-linejoin="round"/>
<path d="M21.3542 3.4165H14.5209L15.375 5.12484H20.5L21.3542 3.4165Z" stroke="#141B34" stroke-width="2.5625" stroke-linecap="round" stroke-linejoin="round"/>
<path d="M20.5 21.3542C20.5 21.3542 22.8037 22.2198 23.9167 25.625C23.9167 25.625 29.3432 17.0833 34.1667 15.375" stroke="#141B34" stroke-width="2.5625" stroke-linecap="round" stroke-linejoin="round"/>
</svg>
