<svg width="72" height="72" viewBox="0 0 72 72" fill="none" xmlns="http://www.w3.org/2000/svg">
<path fill-rule="evenodd" clip-rule="evenodd" d="M63.1289 4.6289C64.3005 3.45734 66.1995 3.45737 67.3711 4.6289C68.5427 5.80047 68.5427 7.69951 67.3711 8.87109L63.2686 12.9727C63.7367 13.9955 64.0756 15.1119 64.3291 16.2158C64.8374 18.4291 65.0865 20.9596 65.1895 23.4424C65.3958 28.4157 65.0266 33.4961 64.7881 36.0918C64.6371 37.7346 63.9647 39.2515 62.916 40.4717C55.1914 49.4593 47.1836 57.6413 38.4405 65.4697C34.3992 69.0881 28.3681 69.1248 24.1631 65.8691C17.288 60.546 11.454 54.712 6.13088 47.8369C2.8752 43.6319 2.91198 37.6008 6.5303 33.5596C14.3587 24.8164 22.5407 16.8086 31.5283 9.08398C32.7486 8.03525 34.2654 7.36288 35.9082 7.21191C38.5039 6.9734 43.5842 6.60422 48.5576 6.81054C51.0406 6.91355 53.5717 7.16252 55.7852 7.67089C56.8886 7.92433 58.0041 8.26262 59.0264 8.73046L63.1289 4.6289ZM24.6211 41.3789C23.4496 40.2074 21.5505 40.2076 20.3789 41.3789C19.2075 42.5505 19.2074 44.4505 20.3789 45.6221L26.3789 51.6221C27.5504 52.793 29.4497 52.7931 30.6211 51.6221C31.7927 50.4505 31.7926 48.5505 30.6211 47.3789L24.6211 41.3789Z" fill="#00C0E8"/>
</svg>
