<svg width="39" height="39" viewBox="0 0 39 39" fill="none" xmlns="http://www.w3.org/2000/svg">
<path d="M3.25 20.3125C3.25 18.5175 4.70507 17.0625 6.5 17.0625C9.19238 17.0625 11.375 19.245 11.375 21.9375V28.4375C11.375 31.13 9.19238 33.3125 6.5 33.3125C4.70507 33.3125 3.25 31.8575 3.25 30.0625V20.3125Z" stroke="#141B34" stroke-width="1.5" stroke-linecap="round" stroke-linejoin="round"/>
<path d="M25.1529 12.6852L24.7202 14.0828C24.3656 15.2281 24.1883 15.8007 24.3246 16.2529C24.435 16.6187 24.6771 16.9341 25.0071 17.1416C25.415 17.3981 26.032 17.3981 27.266 17.3981H27.9225C32.0989 17.3981 34.1871 17.3981 35.1735 18.6344C35.2861 18.7756 35.3863 18.9259 35.4731 19.0835C36.2318 20.4622 35.3693 22.3195 33.644 26.0343C32.0608 29.4432 31.2691 31.1477 29.7992 32.151C29.6571 32.248 29.5108 32.3396 29.361 32.4254C27.8135 33.3125 25.8963 33.3125 22.0616 33.3125H21.23C16.5843 33.3125 14.2615 33.3125 12.8182 31.9142C11.375 30.5157 11.375 28.2651 11.375 23.7638V22.1817C11.375 19.8162 11.375 18.6336 11.7948 17.551C12.2146 16.4684 13.0184 15.5783 14.6261 13.7981L21.2747 6.43591C21.4414 6.25128 21.5247 6.15895 21.5984 6.09497C22.2844 5.49783 23.3434 5.56504 23.9434 6.24382C24.0077 6.31654 24.0779 6.41861 24.2183 6.62275C24.438 6.94208 24.5479 7.10175 24.6438 7.25993C25.5008 8.67609 25.7601 10.3583 25.3675 11.9554C25.3237 12.1337 25.2668 12.3177 25.1529 12.6852Z" stroke="#141B34" stroke-width="1.5" stroke-linecap="round" stroke-linejoin="round"/>
</svg>
