<svg width="41" height="41" viewBox="0 0 41 41" fill="none" xmlns="http://www.w3.org/2000/svg">
<path fill-rule="evenodd" clip-rule="evenodd" d="M18.8308 3.80476C18.8308 2.88272 19.5782 2.13525 20.5003 2.13525C30.6443 2.13525 38.8648 10.3586 38.8648 20.4998C38.8648 30.6411 30.6443 38.8644 20.5003 38.8644C19.5782 38.8644 18.8308 38.117 18.8308 37.1949C18.8308 36.2729 19.5782 35.5254 20.5003 35.5254C28.7999 35.5254 35.5258 28.7973 35.5258 20.4998C35.5258 12.2023 28.7999 5.47427 20.5003 5.47427C19.5782 5.47427 18.8308 4.72681 18.8308 3.80476ZM16.3676 4.28939C16.6974 5.15042 16.2668 6.1158 15.4058 6.44564C13.825 7.0512 12.3455 7.87852 11.0432 8.88736C10.3144 9.45205 9.26569 9.31893 8.701 8.59004C8.13631 7.86114 8.26943 6.81248 8.99833 6.24779C10.5673 5.03231 12.335 4.04636 14.2113 3.32758C15.0724 2.99774 16.0377 3.42836 16.3676 4.28939ZM6.85112 10.6357C7.63412 11.1226 7.87415 12.1521 7.38725 12.9351C6.42988 14.4746 5.76738 16.1575 5.44637 17.8779C5.27724 18.7843 4.40536 19.382 3.49896 19.2129C2.59256 19.0438 1.99488 18.1719 2.164 17.2655C2.56443 15.1194 3.38486 13.0483 4.55175 11.1718C5.03866 10.3888 6.06812 10.1488 6.85112 10.6357ZM3.49896 21.7868C4.40536 21.6177 5.27724 22.2153 5.44637 23.1217C5.76738 24.8422 6.42988 26.5251 7.38725 28.0646C7.87415 28.8476 7.63412 29.8771 6.85112 30.364C6.06812 30.8509 5.03866 30.6109 4.55175 29.8279C3.38486 27.9513 2.56443 25.8803 2.164 23.7342C1.99488 22.8278 2.59256 21.9559 3.49896 21.7868ZM8.70839 32.4002C9.2783 31.6754 10.3279 31.5498 11.0527 32.1197C12.3445 33.1354 13.818 33.9494 15.4033 34.5538C16.2648 34.8822 16.697 35.8469 16.3685 36.7085C16.0401 37.57 15.0754 38.0022 14.2138 37.6737C12.342 36.9601 10.5682 35.9863 8.98887 34.7445C8.26405 34.1746 8.13847 33.125 8.70839 32.4002Z" fill="#141B34"/>
<path d="M15.4046 16.6563C15.4046 13.8391 17.667 11.5312 20.4875 11.5312C23.308 11.5312 25.5705 13.8391 25.5705 16.6563C25.5705 19.4734 23.308 21.7813 20.4875 21.7813C17.667 21.7813 15.4046 19.4734 15.4046 16.6563Z" fill="#141B34"/>
<path d="M12.7629 27.2789C16.7821 23.0516 24.147 22.8207 28.2537 27.295C28.4859 27.5479 28.6068 27.8833 28.5894 28.2262C28.5721 28.569 28.4178 28.8906 28.1613 29.1187C26.1253 30.9296 23.4399 32.0313 20.5004 32.0313C17.5611 32.0313 14.8759 30.9298 12.84 29.1192C12.5805 28.8884 12.4258 28.5623 12.4113 28.2154C12.3967 27.8685 12.5236 27.5306 12.7629 27.2789Z" fill="#141B34"/>
</svg>
