<svg width="24" height="38" viewBox="0 0 24 38" fill="none" xmlns="http://www.w3.org/2000/svg">
<path d="M9.59605 1.04879L0.208205 21.6439C0.0512315 21.9881 -0.0188869 22.3677 0.00435074 22.7474C0.0275883 23.1271 0.143434 23.4946 0.341134 23.8158C0.538834 24.1369 0.811976 24.4014 1.13523 24.5846C1.45847 24.7678 1.82135 24.8638 2.19018 24.8637H8.77023L4.57673 35.6821C3.96001 37.2725 5.98896 38.5182 7.05041 37.2006L22.3819 18.1677C23.2198 17.1275 22.5031 15.5505 21.1917 15.5505H15.3988L23.1948 1.67399C23.2902 1.50457 23.3406 1.31222 23.3409 1.11631C23.3412 0.920406 23.2915 0.727873 23.1967 0.558122C23.1018 0.388371 22.9653 0.2474 22.8009 0.149414C22.6364 0.0514283 22.4498 -0.00010765 22.2599 1.68829e-07H11.1985C10.8625 0.000316975 10.5335 0.0990652 10.2498 0.284737C9.96615 0.470409 9.73943 0.735371 9.59605 1.04879Z" fill="black"/>
</svg>
