<svg width="72" height="72" viewBox="0 0 72 72" fill="none" xmlns="http://www.w3.org/2000/svg">
<path fill-rule="evenodd" clip-rule="evenodd" d="M18 56.6251C19.6569 56.6251 21 57.9683 21 59.6251V65.6251C21 67.282 19.6569 68.6251 18 68.6251C16.3431 68.6251 15 67.282 15 65.6251V59.6251C15 57.9683 16.3431 56.6251 18 56.6251ZM54 56.6251C55.6569 56.6251 57 57.9683 57 59.6251V65.6251C57 67.282 55.6569 68.6251 54 68.6251C52.3431 68.6251 51 67.282 51 65.6251V59.6251C51 57.9683 52.3431 56.6251 54 56.6251Z" fill="#FFA1E6"/>
<path fill-rule="evenodd" clip-rule="evenodd" d="M43.9414 61.8751C48.1522 61.8752 51.591 61.8751 54.3057 61.5304C57.1308 61.1717 59.6125 60.3956 61.6123 58.507C63.6357 56.596 64.49 54.1861 64.8809 51.4405C65.2504 48.8446 65.2501 45.569 65.25 41.6173V23.6339C65.2501 19.682 65.2504 16.4058 64.8809 13.8097C64.49 11.0641 63.6357 8.65427 61.6123 6.74328C59.6125 4.85466 57.1308 4.07857 54.3057 3.71984C51.591 3.37519 48.1522 3.37504 43.9414 3.37512H40.0498C39.2014 3.37512 38.7773 3.37521 38.5137 3.63879C38.2501 3.90237 38.25 4.32653 38.25 5.17492L38.25 48.0753C38.25 48.9237 38.2501 49.3479 38.5137 49.6114C38.7773 49.875 39.2014 49.8751 40.0498 49.8751L58.4336 49.8751C58.8327 49.8753 59.1451 50.2211 59.0889 50.6163C58.7994 52.6496 58.2935 53.5939 57.5957 54.253C56.8742 54.9345 55.8044 55.4429 53.5693 55.7267C51.2665 56.0191 48.2011 56.0255 43.7432 56.0255L28.2578 56.0255C23.7997 56.0255 20.7336 56.0191 18.4307 55.7267C16.1959 55.4429 15.1268 54.9344 14.4053 54.253C13.7074 53.5939 13.2006 52.6498 12.9111 50.6163C12.855 50.2211 13.1681 49.8751 13.5674 49.8751H31.9502C32.7986 49.8751 33.2227 49.875 33.4863 49.6114C33.7499 49.3479 33.75 48.9237 33.75 48.0753L33.75 5.17492C33.75 4.32653 33.7499 3.90237 33.4863 3.63879C33.2227 3.37521 32.7986 3.37512 31.9502 3.37512H28.0586C23.8478 3.37504 20.409 3.37519 17.6943 3.71984C14.8692 4.07857 12.3875 4.85465 10.3877 6.74328C8.3643 8.65427 7.50999 11.0641 7.11914 13.8097C6.74962 16.4058 6.74989 19.682 6.75 23.6339L6.75 41.6163C6.74989 45.5683 6.74962 48.8444 7.11914 51.4405C7.50999 54.1861 8.3643 56.596 10.3877 58.507C12.3875 60.3956 14.8692 61.1717 17.6943 61.5304C20.409 61.8751 23.8478 61.8752 28.0586 61.8751L43.9414 61.8751ZM27 31.8751C25.7574 31.8751 24.75 30.8678 24.75 29.6251V26.6251C24.75 25.3825 25.7574 24.3751 27 24.3751C28.2426 24.3751 29.25 25.3825 29.25 26.6251V29.6251C29.25 30.8678 28.2426 31.8751 27 31.8751ZM45 31.8751C43.7574 31.8751 42.75 30.8678 42.75 29.6251V26.6251C42.75 25.3825 43.7574 24.3751 45 24.3751C46.2426 24.3751 47.25 25.3825 47.25 26.6251V29.6251C47.25 30.8678 46.2426 31.8751 45 31.8751Z" fill="#FFA1E6"/>
</svg>
